<svg xmlns="http://www.w3.org/2000/svg" viewBox="0 0 100 100">
  <style>
    .gt-mark { fill: #2C2824; }
    @media (prefers-color-scheme: dark) {
      .gt-mark { fill: #E3E0DB; }
    }
  </style>
  <!-- G mark matching logo style -->
  <!-- Outer G shape -->
  <path class="gt-mark" fill-rule="evenodd" d="
    M 50 6
    C 25 6 6 25 6 50
    C 6 75 25 94 50 94
    C 75 94 94 75 94 50
    L 94 44
    L 50 44
    L 50 56
    L 82 56
    L 82 50
    C 82 68 68 82 50 82
    C 32 82 18 68 18 50
    C 18 32 32 18 50 18
    C 60 18 69 22 75 30
    L 85 22
    C 77 12 64 6 50 6
    Z
  "/>
</svg>
