<svg xmlns="http://www.w3.org/2000/svg" viewBox="0 0 100 100">
  <style>
    .gt-mark { fill: #2C2824; }
    @media (prefers-color-scheme: dark) {
      .gt-mark { fill: #E3E0DB; }
    }
  </style>
  <!-- G mark -->
  <path class="gt-mark" d="
    M 50 6
    C 16 6 6 28 6 50
    C 6 72 16 94 50 94
    C 84 94 94 72 94 58
    L 94 44
    L 50 44
    L 50 58
    L 80 58
    C 78 72 68 80 50 80
    C 28 80 20 66 20 50
    C 20 34 28 20 50 20
    C 66 20 74 28 78 36
    L 92 30
    C 86 16 70 6 50 6
    Z
  "/>
</svg>
