<svg xmlns="http://www.w3.org/2000/svg" viewBox="0 0 100 100">
  <style>
    .gt-mark { fill: #2C2824; }
    @media (prefers-color-scheme: dark) {
      .gt-mark { fill: #E3E0DB; }
    }
  </style>
  <!-- GT mark traced from actual logo -->
  <g class="gt-mark" transform="translate(5,90.9245) scale(0.033962,-0.033962)" stroke="none">
    <path d="M690 2099 c-104 -13 -238 -56 -320 -102 -108 -60 -226 -180 -273 -277 -70 -143 -81 -204 -81 -475 -1 -203 2 -250 17 -305 79 -281 282 -441 622 -490 93 -13 848 -13 955 1 185 22 316 77 410 169 112 109 140 210 140 503 l0 197 -585 0 -585 0 6 -27 c23 -97 95 -190 173 -227 43 -20 65 -21 344 -24 l297 -3 0 -33 c0 -111 -81 -223 -193 -265 -90 -33 -264 -44 -577 -38 -306 6 -378 18 -472 78 -142 91 -191 210 -192 469 -1 133 2 165 21 225 56 179 185 295 378 342 62 15 160 17 853 20 l782 4 0 -696 0 -697 42 7 c60 11 117 32 161 61 l37 24 0 785 0 785 -947 -1 c-522 -1 -977 -5 -1013 -10z"/>
  </g>
</svg>
