<svg width="199" height="37" viewBox="0 0 199 37" fill="none" xmlns="http://www.w3.org/2000/svg">
<path d="M15.42 24.9018C15.657 24.6647 15.8052 24.6351 16.0719 24.8722C17.3461 26.1464 18.6202 27.4502 19.8944 28.6947C20.1612 28.9318 20.1612 29.1096 19.8944 29.3466C18.6202 30.5912 17.3461 31.8654 16.1015 33.1396C15.8348 33.4062 15.6867 33.4359 15.42 33.1692C14.1458 31.895 12.8716 30.6208 11.5974 29.3466C11.3604 29.1096 11.3604 28.9614 11.5974 28.7244C11.7752 28.5762 11.9234 28.3984 12.0715 28.2502L15.42 24.9018Z" fill="#102754"/>
<path d="M5.37459 8.21932C2.29283 12.6938 2.32246 18.5017 5.49312 22.9466C5.8487 23.4503 6.29319 23.9244 6.70804 24.3985C8.18965 22.9169 9.61203 21.4946 11.064 20.0426C8.60451 17.5239 8.60451 13.4642 11.1233 10.9751C13.642 8.45638 17.7313 8.45638 20.25 10.9751C22.6502 13.3754 22.7688 17.1683 20.6056 19.687C20.5759 19.8055 20.5463 19.9241 20.4574 20.013C21.939 21.4946 23.3614 22.9169 24.8134 24.3689C24.9615 24.2207 25.1097 24.0726 25.2282 23.9541C27.9247 21.2575 30.5916 18.561 33.3178 15.8941C33.6438 15.5681 33.6141 15.3903 33.3178 15.0644C30.4731 12.279 27.6877 9.46389 24.8726 6.67844C24.3985 6.20433 23.8651 5.75984 23.3021 5.34499C17.6719 1.10757 9.40455 2.44103 5.37459 8.21932Z" fill="#2E76B5"/>
<path d="M45.6323 18.0622V18.0237C45.6323 12.3468 49.9283 7.70557 56.0655 7.70557C59.8246 7.70557 62.0877 8.97137 63.9288 10.7742L61.1288 13.9962C59.5945 12.6153 58.0218 11.7331 56.0272 11.7331C52.6517 11.7331 50.2352 14.5332 50.2352 17.947V17.9854C50.2352 21.3992 52.6134 24.2761 56.0272 24.2761C58.3286 24.2761 59.7095 23.3555 61.2821 21.9363L64.0823 24.7747C62.0109 26.9611 59.7479 28.342 55.8737 28.342C50.005 28.3036 45.6323 23.7774 45.6323 18.0622Z" fill="#102754"/>
<path d="M69.9107 8.01221H84.9853V11.9247H74.2835V15.9906H83.7195V19.9031H74.2835V24.084H85.1004V27.9965H69.8724V8.01221H69.9107Z" fill="#102754"/>
<path d="M91.2769 8.01221H100.444C102.976 8.01221 104.971 8.741 106.275 10.0452C107.387 11.1575 108.001 12.7302 108.001 14.6097V14.6481C108.001 17.8702 106.275 19.9031 103.705 20.8237L108.576 27.9582H103.436L99.1402 21.5525H95.688V27.9582H91.2769V8.01221ZM100.138 17.7167C102.286 17.7167 103.513 16.5659 103.513 14.8782V14.8399C103.513 12.9603 102.209 12.0014 100.061 12.0014H95.688V17.755H100.138V17.7167Z" fill="#102754"/>
<path d="M118.855 12.0398H112.794V8.01221H129.365V12.0398H123.304V27.9582H118.855V12.0398Z" fill="#102754"/>
<path d="M135.193 8.01221H139.566V27.9965H135.154V8.01221H135.193Z" fill="#102754"/>
<path d="M146.855 8.01221H162.083V12.0014H151.266V16.2591H160.778V20.2483H151.266V27.9965H146.855V8.01221Z" fill="#102754"/>
<path d="M168.067 8.01221H172.478V27.9965H168.067V8.01221Z" fill="#2E76B5"/>
<path d="M179.728 8.01221H187.515C193.805 8.01221 198.14 12.3083 198.14 17.9468V17.9852C198.14 23.6237 193.805 27.9582 187.515 27.9582H179.728V8.01221ZM184.139 11.963V24.0074H187.553C191.159 24.0074 193.575 21.5908 193.575 18.0619V18.0235C193.575 14.4946 191.159 12.0014 187.553 12.0014H184.139V11.963Z" fill="#2E76B5"/>
</svg>
