<?xml version="1.0" encoding="UTF-8"?>
<svg width="225px" height="50px" viewBox="0 0 225 50" version="1.1" xmlns="http://www.w3.org/2000/svg" xmlns:xlink="http://www.w3.org/1999/xlink">
    <title>Medix Logo - 2023_Dark_225x50</title>
    <g id="Medix-Logo---2023_Dark_225x50" stroke="none" stroke-width="1" fill="none" fill-rule="evenodd">
        <g id="Medix-Logo---2023_Dark_225x42" transform="translate(0, 4)" fill="#182752" fill-rule="nonzero">
            <path d="M221.238281,40.4394483 C221.238281,40.1682636 221.286707,39.9183863 221.383558,39.6878793 C221.48041,39.4593094 221.614065,39.261732 221.78065,39.0951471 C221.949172,38.9285622 222.148687,38.7968439 222.377257,38.7019293 C222.607764,38.6070146 222.853767,38.5605258 223.11914,38.5605258 C223.384514,38.5605258 223.630517,38.6070146 223.861024,38.7019293 C224.091531,38.7968439 224.291046,38.9266252 224.457631,39.0951471 C224.626153,39.261732 224.757871,39.4593094 224.854722,39.6878793 C224.951574,39.9164493 225,40.1663266 225,40.4394483 C225,40.710633 224.951574,40.9605103 224.854722,41.1910173 C224.757871,41.4195873 224.624216,41.6171647 224.457631,41.7837496 C224.289109,41.9503345 224.089594,42.0820527 223.861024,42.1769674 C223.630517,42.271882 223.384514,42.3183708 223.11914,42.3183708 C222.853767,42.3183708 222.607764,42.271882 222.377257,42.1769674 C222.14675,42.0820527 221.947235,41.9522715 221.78065,41.7837496 C221.612128,41.6171647 221.48041,41.4195873 221.383558,41.1910173 C221.286707,40.9605103 221.238281,40.710633 221.238281,40.4394483 Z M221.645058,40.4394483 C221.645058,40.648648 221.679925,40.8462254 221.749658,41.0302435 C221.819391,41.2161988 221.91818,41.3750355 222.047961,41.5106279 C222.177742,41.6462202 222.332705,41.7546941 222.512849,41.8321754 C222.692993,41.9115938 222.896382,41.9503345 223.117203,41.9503345 C223.339962,41.9503345 223.541414,41.9115938 223.721558,41.8321754 C223.901702,41.752757 224.058602,41.6462202 224.186446,41.5106279 C224.316227,41.3750355 224.415016,41.2142617 224.484749,41.0302435 C224.554482,40.8462254 224.589349,40.648648 224.589349,40.4394483 C224.589349,40.2302487 224.554482,40.0326713 224.484749,39.8486531 C224.415016,39.6626979 224.316227,39.5038612 224.186446,39.3682688 C224.056665,39.2326765 223.901702,39.1242026 223.721558,39.0467212 C223.541414,38.9673029 223.338025,38.9285622 223.117203,38.9285622 C222.894445,38.9285622 222.692993,38.9673029 222.512849,39.0467212 C222.332705,39.1261396 222.175805,39.2326765 222.047961,39.3682688 C221.91818,39.5038612 221.819391,39.6646349 221.749658,39.8486531 C221.679925,40.0326713 221.645058,40.2302487 221.645058,40.4394483 Z M223.394199,40.6099073 L223.921072,41.3905318 L223.479429,41.3905318 L223.010667,40.652522 L222.813089,40.652522 L222.813089,41.3905318 L222.429557,41.3905318 L222.429557,39.4651205 L223.093959,39.4651205 C223.194685,39.4651205 223.293473,39.4748057 223.386451,39.494176 C223.481366,39.5135463 223.564658,39.5464759 223.636328,39.5929647 C223.707999,39.6394535 223.76611,39.6995015 223.810661,39.7731088 C223.855213,39.8467161 223.876521,39.9377567 223.876521,40.0462305 C223.876521,40.2011932 223.833906,40.3232263 223.746739,40.4142669 C223.659573,40.5053075 223.543351,40.5634185 223.396136,40.592474 L223.396136,40.6099073 L223.394199,40.6099073 Z M222.813089,39.7963532 L222.813089,40.3232263 L223.026163,40.3232263 C223.175314,40.3232263 223.287662,40.301919 223.36127,40.2593042 C223.434877,40.2166895 223.471681,40.1469563 223.471681,40.0481676 C223.471681,39.9726233 223.446499,39.9125752 223.396136,39.8660864 C223.345773,39.8195976 223.25667,39.7963532 223.126889,39.7963532 L222.813089,39.7963532 L222.813089,39.7963532 Z" id="Shape"></path>
            <g id="Group">
                <path d="M38.0220305,0.0949146414 L59.6935613,0.0949146414 C58.5119709,1.78400785 57.9211757,3.87212996 57.9211757,6.36121801 L57.9211757,36.0501304 C57.9211757,38.5411555 58.5119709,40.6292776 59.6935613,42.3164338 L40.1140267,42.3164338 C41.2665616,40.6292776 41.8418606,38.5392185 41.8418606,36.0501304 L41.8418606,10.1597407 L30.8898732,42.3164338 L19.4962422,42.3164338 L8.73602107,10.1597407 L8.73602107,36.0501304 C8.73602107,38.5411555 9.32875333,40.6292776 10.5180919,42.3164338 L0,42.3164338 C1.18159043,40.6292776 1.77238565,38.5392185 1.77238565,36.0501304 L1.77238565,6.36315504 C1.77238565,3.874067 1.18159043,1.78400785 0,0.0968516749 L21.6715308,0.0968516749 L29.7838271,24.2148558 L38.0220305,0.0949146414 Z" id="Path"></path>
                <path d="M77.8726207,29.719905 L77.8726207,32.2903484 C77.8726207,33.1678246 77.9365428,33.8690307 78.06245,34.3920298 C78.1883571,34.9130918 78.4208012,35.3218058 78.759782,35.6142979 C79.0968258,35.9067899 79.5713991,36.1063044 80.1835016,36.2109042 C80.7956042,36.315504 81.5859139,36.3678039 82.5563677,36.3678039 L96.4197164,36.3678039 C99.2458483,36.3678039 101.483122,35.8835455 103.1296,34.9111547 L101.990625,42.3164338 L74.2000052,42.3164338 C71.9220538,42.3164338 70.1167386,42.157597 68.7879336,41.8418606 C67.4591286,41.5241871 66.3724528,40.9643844 65.5279062,40.1605155 C63.5869986,38.3416411 62.6165448,35.5290684 62.6165448,31.7227976 L62.6165448,21.6386012 C62.6165448,19.6085901 62.8470518,17.9485524 63.3119399,16.6604251 C63.7768279,15.3703608 64.5148377,14.2391332 65.5279062,13.2667424 C66.4131305,12.4221958 67.426199,11.8391487 68.5671118,11.5214752 C69.7060875,11.2057388 71.2886438,11.046902 73.3147809,11.046902 L92.4952866,11.046902 C93.8027842,11.046902 94.9010822,11.0798316 95.7863065,11.1437537 C96.6734678,11.2076758 97.4424701,11.333583 98.0971874,11.5234123 C98.7519047,11.7151786 99.3213926,11.9573078 99.805651,12.2556109 C100.289909,12.5519771 100.764483,12.952943 101.229371,13.4604458 C102.073917,14.3514812 102.68602,15.4304088 103.065678,16.7011028 C103.445337,17.9698598 103.635166,19.5795346 103.635166,21.5281903 L103.635166,29.721842 L77.8726207,29.721842 L77.8726207,29.719905 Z M88.5708567,20.4453886 C88.5708567,19.6938196 88.5398641,19.0875281 88.475942,18.6265141 C88.4120199,18.1655001 88.2861128,17.8207082 88.0962835,17.5921382 C87.9064542,17.3635683 87.6313954,17.2066686 87.2730442,17.1214391 C86.914693,17.0381466 86.4188125,16.9955319 85.7854025,16.9955319 L80.783982,16.9955319 C80.1505721,16.9955319 79.6333841,17.0265244 79.2324182,17.0885095 C78.8314523,17.1524316 78.5370232,17.3073943 78.3452569,17.5592087 C78.1554276,17.811023 78.0295204,18.1655001 77.9655983,18.6245771 C77.9016762,19.0855911 77.8706836,19.7112529 77.8706836,20.5054366 L77.8706836,23.765464 L88.5689197,23.765464 L88.5689197,20.4453886 L88.5708567,20.4453886 Z" id="Shape"></path>
                <path d="M149.403394,34.3959038 C149.403394,35.5368166 149.424701,36.4995222 149.467316,37.2801467 C149.507993,38.0607712 149.571916,38.7484181 149.657145,39.3392133 C149.740438,39.9300085 149.868282,40.4491335 150.036804,40.8927142 C150.205326,41.3362948 150.416462,41.7895607 150.670214,42.2544487 L136.237377,42.2544487 L135.541982,39.3760169 C135.203001,39.9726233 134.854335,40.4549446 134.497921,40.8152328 C134.13957,41.1774581 133.717296,41.4641391 133.231101,41.6791498 C132.744906,41.8922235 132.165733,42.041375 131.489708,42.1266045 C130.813683,42.211834 130.011751,42.2544487 129.083912,42.2544487 L118.259769,42.2544487 C115.896588,42.2544487 114.071903,41.981327 112.783775,41.4312095 C111.495648,40.881092 110.43028,39.9300085 109.58767,38.5760221 C109.208012,37.9852269 108.892275,37.1716728 108.638524,36.1353599 C108.384772,35.099047 108.258865,34.115034 108.258865,33.1852579 L108.258865,19.6124642 C108.258865,18.215863 108.417702,17.0652651 108.733438,16.1548594 C109.049175,15.2463907 109.566363,14.3689145 110.285002,13.5224308 C111.129549,12.5926548 112.003151,11.9379374 112.91162,11.5563418 C113.818151,11.1766833 114.990057,10.984917 116.425398,10.984917 L128.959942,10.984917 C130.310054,10.984917 131.365738,11.1979907 132.125055,11.624138 C132.884372,12.0522224 133.55846,12.8192877 134.151192,13.9272708 L134.151192,7.85079677 C134.151192,6.71182107 134.129885,5.75298949 134.08727,4.97042796 C134.044655,4.18980346 133.980733,3.5040936 133.897441,2.91329838 C133.812211,2.32250316 133.686304,1.80531522 133.517782,1.36173455 C133.34926,0.918153878 133.138123,0.464888039 132.884372,0 L149.405331,0 L149.405331,34.3959038 L149.403394,34.3959038 Z M130.728454,36.3038818 C132.078566,36.3038818 132.985098,36.0191379 133.449986,35.4515871 C133.914874,34.8840363 134.145381,33.8012345 134.145381,32.2031819 L134.145381,20.6565252 C134.145381,20.1509595 134.145381,19.7519306 134.145381,19.4575015 C134.145381,19.1204577 134.124073,18.8589581 134.081459,18.6691289 C134.038844,18.4812366 133.974922,18.3223999 133.891629,18.1964927 C133.8064,18.0705855 133.680493,17.923371 133.511971,17.754849 C133.215605,17.4197422 132.888246,17.1989204 132.529895,17.0923836 C132.171544,16.9877838 131.633048,16.9335468 130.916346,16.9335468 L126.738165,16.9335468 C125.599189,16.9335468 124.77595,17.2163537 124.268447,17.7858416 C123.762881,18.3533924 123.50913,19.2483019 123.50913,20.4666959 L123.50913,32.960562 C123.50913,34.1808931 123.793874,35.042873 124.363362,35.5484388 C124.93285,36.0540045 125.891681,36.3058188 127.24373,36.3058188 L130.728454,36.3058188 L130.728454,36.3038818 Z" id="Shape"></path>
                <path d="M170.943206,34.4675741 C170.943206,35.6065498 170.964514,36.5673184 171.007128,37.3479429 C171.049743,38.1285674 171.111728,38.8142772 171.196958,39.4050724 C171.28025,39.9958677 171.408094,40.5130556 171.576616,40.9566363 C171.745138,41.4002169 171.956275,41.8534828 172.210026,42.3183708 L154.422247,42.3183708 C154.675999,41.8554198 154.885198,41.4002169 155.055657,40.9566363 C155.224179,40.5130556 155.350087,39.9978047 155.435316,39.4050724 C155.518608,38.8142772 155.582531,38.1285674 155.625145,37.3479429 C155.665823,36.5673184 155.689067,35.6065498 155.689067,34.4675741 L155.689067,18.9577468 C155.689067,17.8187711 155.66776,16.8599396 155.625145,16.077378 C155.582531,15.2967535 155.518608,14.6110437 155.435316,14.0202485 C155.350087,13.4294532 155.224179,12.9122653 155.055657,12.4686846 C154.887136,12.025104 154.675999,11.5718381 154.422247,11.1069501 L170.943206,11.1069501 L170.943206,34.4675741 Z M170.943206,8.00769648 L155.68713,8.00769648 L155.68713,0.0949146414 L170.943206,0.0949146414 L170.943206,8.00769648 Z" id="Shape"></path>
                <path d="M214.747282,36.429789 C215.634443,37.528087 216.351145,38.3920039 216.899326,39.0254139 C217.447506,39.6588238 217.912394,40.1643896 218.292053,40.5440481 C218.671712,40.9237067 219.020378,41.2394432 219.336114,41.4931946 C219.653788,41.7469459 220.043131,42.0220047 220.508019,42.3164338 L198.542059,42.3164338 C198.45683,41.810868 198.383223,41.4408947 198.321238,41.2084506 C198.257316,40.9760066 198.183708,40.7551848 198.100416,40.5440481 C198.057801,40.4607557 197.867972,40.1740747 197.530928,39.6898164 C197.191947,39.205558 196.854903,38.7309848 196.517859,38.2660967 L192.783259,33.772179 L186.073375,39.5329167 C184.975077,40.4607557 184.300989,41.3905318 184.047238,42.3183708 L172.969343,42.3183708 C173.602753,41.9387123 174.129626,41.6113536 174.5519,41.3362948 C174.974173,41.0631731 175.415817,40.7454996 175.880705,40.3871484 C176.345593,40.0287972 176.882151,39.5871536 177.496191,39.0583434 C178.108293,38.5314703 178.962525,37.8031457 180.058886,36.8753067 L188.920814,29.1523541 L179.994964,17.9485524 C179.193032,17.0207133 178.538315,16.249774 178.032749,15.6376714 C177.527183,15.0255688 177.07198,14.4890106 176.671014,14.0241225 C176.270048,13.5592345 175.869082,13.1059686 175.468116,12.662388 C175.06715,12.2188073 174.57127,11.7035564 173.980475,11.1108241 L195.313025,11.1108241 C195.481547,11.7442341 195.756605,12.4086366 196.136264,13.1040316 C196.515922,13.7994266 197.064103,14.5083809 197.782742,15.2250833 L200.694104,18.8337767 L204.936207,15.2250833 C206.203027,14.1287223 207.078566,13.3054831 207.562824,12.7573026 C208.047083,12.2091221 208.374441,11.6609417 208.5449,11.1108241 L219.117229,11.1108241 C218.611664,11.449805 218.220383,11.7229267 217.945324,11.9340634 C217.670265,12.1452 217.238307,12.5248586 216.647512,13.0730391 L214.811204,14.5916733 L213.29257,15.9204783 L204.492626,23.6434309 L214.747282,36.429789 Z" id="Path"></path>
            </g>
        </g>
    </g>
</svg>