<svg width="91" height="24" viewBox="0 0 91 24" fill="none" xmlns="http://www.w3.org/2000/svg">
<path d="M18.373 0.679245L18.3525 0.731979L27.1387 23.3208H18.332L13.9902 12.0523L9.64844 23.3208H0.841797L9.62695 0.731979L9.60742 0.679245H18.373Z" fill="#221E2D"/>
<path d="M22.7598 12.0467L27.1815 0.679245H35.9053L31.5254 12.0467H22.7598Z" fill="#A863FE"/>
<path fill-rule="evenodd" clip-rule="evenodd" d="M61.7382 7.5583C63.5982 6.39784 65.8339 5.99853 67.9807 6.44291C70.1274 6.88731 72.0208 8.14116 73.2673 9.9446C74.5086 11.7406 75.0135 13.9442 74.6787 16.101H62.2416C62.3264 16.361 62.4368 16.6138 62.5724 16.8557C62.7933 17.2498 63.0738 17.6022 63.4009 17.9021C63.8591 18.3223 64.4088 18.6398 65.0136 18.8256C66.0503 19.144 67.1698 19.0512 68.1397 18.5659C68.4932 18.3891 68.8167 18.1648 69.1031 17.9021H74.1924C73.4246 19.8635 71.9566 21.4745 70.0678 22.4195C68.1072 23.4005 65.8441 23.5885 63.7484 22.9449C61.6527 22.3012 59.8852 20.875 58.8133 18.9626C57.7414 17.0502 57.4472 14.7985 57.9918 12.6749C58.5364 10.5512 59.8782 8.7188 61.7382 7.5583ZM67.1069 10.6624C66.045 10.4426 64.9391 10.6402 64.019 11.2142C63.2318 11.7054 62.6321 12.4398 62.3066 13.2996H70.1974C70.0773 12.9823 69.9181 12.6781 69.7221 12.3946C69.1055 11.5025 68.1688 10.8822 67.1069 10.6624Z" fill="#221E2D"/>
<path fill-rule="evenodd" clip-rule="evenodd" d="M49.1477 0.679245C50.6829 0.679279 52.0389 0.94882 53.2152 1.48712C54.4115 2.02549 55.3489 2.82329 56.0268 3.88001C56.7046 4.93676 57.0438 6.24302 57.0438 7.79816C57.0437 9.31343 56.6948 10.6098 55.9969 11.6864C55.2991 12.7431 54.3617 13.5405 53.1854 14.0789L58.2699 23.3051H53.0659L48.5494 14.8868H45.2595V23.3051H40.623V0.679245H49.1477ZM45.2595 10.8487H49.1776C49.8355 10.8487 50.4041 10.7191 50.8825 10.4599C51.361 10.2007 51.73 9.84167 51.9891 9.38317C52.2682 8.92466 52.4078 8.39617 52.4078 7.79816C52.4078 7.18015 52.2682 6.6414 51.9891 6.18284C51.73 5.72436 51.3609 5.3653 50.8825 5.10611C50.4041 4.84693 49.8355 4.71736 49.1776 4.71732H45.2595V10.8487Z" fill="#221E2D"/>
<path d="M82.5946 16.4138L86.1239 6.63181H90.9694L84.5389 23.3051H80.6506L74.2201 6.63181H79.0656L82.5946 16.4138Z" fill="#221E2D"/>
</svg>
