<svg width="336" height="84" viewBox="0 0 336 84" fill="none" xmlns="http://www.w3.org/2000/svg">
<path d="M14.2407 22.1221V22.1274L34.9467 10.2415C37.7552 8.62857 41.2167 8.62857 44.0251 10.2415L64.7397 22.1327V22.1231L68.9989 24.5783L69.8394 25.0615V20.8586C69.8394 17.6338 68.1081 14.6549 65.3008 13.043L44.0251 0.828987C41.2222 -0.166725 37.7965 -0.380764 34.9467 0.828987L13.6711 13.0409C10.8627 14.6538 9.13243 17.6328 9.13243 20.8565V25.0593L12.0918 23.3609L14.2418 22.1221H14.2407Z" fill="url(#paint0_linear_670_31125)"/>
<path d="M69.7325 30.8947L69.7279 30.8921L69.6858 54.7366C69.6808 57.9711 67.95 60.9638 65.1466 62.5854L44.4737 74.5488L44.482 74.5536L40.2226 77.0083L39.3832 77.4934L43.0291 79.5948C45.8266 81.2072 49.2765 81.1999 52.0785 79.5787L73.3119 67.2916C75.5771 65.3662 77.4757 62.5115 77.8511 59.4429L77.8952 34.9429C77.9002 31.7083 76.181 28.723 73.3845 27.1111L69.7386 25.0097L69.7323 28.4175L69.732 30.8957L69.7325 30.8947Z" fill="url(#paint1_linear_670_31125)"/>
<path d="M34.3729 74.4858L34.3775 74.4831L13.7135 62.5245C10.9101 60.9029 9.17933 57.9102 9.17434 54.6757L9.13261 30.8211L9.12427 30.8259L9.12455 25.916L9.12341 24.9477L5.47749 27.0491C2.67999 28.6615 0.96142 31.6478 0.96681 34.8809L1.00902 59.382C1.54668 62.3031 3.07387 65.3718 5.54821 67.2307L26.7798 79.5189C29.5832 81.1404 33.0326 81.1468 35.8291 79.535L39.4751 77.4336L36.522 75.7242L34.3723 74.4849L34.3729 74.4858Z" fill="url(#paint2_linear_670_31125)"/>
<path d="M99.7986 54.2506H105.048C105.311 59.938 109.773 63.4379 117.123 63.4379C123.423 63.4379 127.623 60.3755 127.623 55.6506C127.623 51.1882 124.036 48.3883 115.986 46.6383C105.836 44.2759 101.286 40.6009 101.286 33.1636C101.286 25.6388 108.286 20.5639 116.948 20.5639C127.36 20.5639 132.348 25.9012 132.348 33.9511H127.098C126.835 28.2637 122.811 25.2888 116.861 25.2888C111.523 25.2888 107.148 27.8262 107.148 32.6386C107.148 37.276 110.298 39.7259 117.911 41.4759C128.585 44.0134 133.66 47.8633 133.66 55.1256C133.66 63.2629 126.66 68.1628 117.036 68.1628C105.748 68.1628 99.7986 62.563 99.7986 54.2506Z" fill="black"/>
<path d="M176.108 67.1129H170.508C169.808 64.5754 169.371 61.6005 169.283 57.7506C166.921 63.7879 160.971 68.1628 153.533 68.1628C146.446 68.1628 140.496 64.1379 140.496 56.1756C140.496 48.9132 145.746 44.0134 157.121 42.2634L169.108 40.4259V37.276C169.108 29.5762 165.083 25.4638 158.083 25.4638C151.171 25.4638 146.971 28.9637 146.446 37.3635H141.371C141.721 26.3387 149.071 20.5639 158.258 20.5639C169.371 20.5639 174.708 26.7762 174.708 36.926V54.0756C174.708 59.8505 175.233 63.9629 176.108 67.1129ZM146.271 55.9131C146.271 60.5505 149.683 63.3504 155.108 63.3504C162.283 63.3504 169.283 58.713 169.283 50.6632V44.6258L158.696 46.2008C149.858 47.5133 146.271 51.0132 146.271 55.9131Z" fill="black"/>
<path d="M203.415 71.4003C199.741 80.7626 195.716 84 188.453 84C186.266 84 184.428 83.9125 182.503 83.65V79.1001H188.278C193.703 79.1001 196.241 76.8251 198.866 69.4753L199.916 66.6754L181.453 21.6138H187.753L196.503 44.3633C198.253 49.0882 200.528 54.7756 202.716 60.3755L216.978 21.6138H222.928L203.415 71.4003Z" fill="black"/>
<path d="M265.126 44.7133H232.139C232.314 56.8756 239.227 63.2629 246.839 63.2629C254.102 63.2629 258.651 58.6255 260.051 51.8882H265.214C263.726 61.6005 256.639 68.1628 246.752 68.1628C235.377 68.1628 226.277 59.413 226.277 44.3633C226.277 29.8387 235.289 20.5639 246.839 20.5639C258.914 20.5639 265.301 29.9262 265.126 44.7133ZM246.839 25.2888C239.489 25.2888 233.802 30.8011 232.489 40.0759H259.526C258.301 29.3137 253.314 25.2888 246.839 25.2888Z" fill="black"/>
<path d="M275.919 21.6138H281.518V32.6386C283.531 25.8137 288.256 21.1763 294.293 21.1763C295.693 21.1763 296.918 21.2638 297.968 21.6138V26.7762H294.031C286.418 26.7762 281.693 31.8511 281.693 41.4759V67.1129H275.919V21.6138Z" fill="black"/>
<path d="M302.138 54.2506H307.388C307.65 59.938 312.113 63.4379 319.463 63.4379C325.762 63.4379 329.962 60.3755 329.962 55.6506C329.962 51.1882 326.375 48.3883 318.325 46.6383C308.175 44.2759 303.625 40.6009 303.625 33.1636C303.625 25.6388 310.625 20.5639 319.288 20.5639C329.7 20.5639 334.687 25.9012 334.687 33.9511H329.437C329.175 28.2637 325.15 25.2888 319.2 25.2888C313.863 25.2888 309.488 27.8262 309.488 32.6386C309.488 37.276 312.638 39.7259 320.25 41.4759C330.925 44.0134 336 47.8633 336 55.1256C336 63.2629 329 68.1628 319.375 68.1628C308.088 68.1628 302.138 62.563 302.138 54.2506Z" fill="black"/>
<defs>
<linearGradient id="paint0_linear_670_31125" x1="168.483" y1="0" x2="168.483" y2="84" gradientUnits="userSpaceOnUse">
<stop stop-color="#329E9C"/>
<stop offset="0.5" stop-color="#37B3B4"/>
<stop offset="1" stop-color="#5EDFBC"/>
</linearGradient>
<linearGradient id="paint1_linear_670_31125" x1="168.483" y1="0" x2="168.483" y2="84" gradientUnits="userSpaceOnUse">
<stop stop-color="#329E9C"/>
<stop offset="0.5" stop-color="#37B3B4"/>
<stop offset="1" stop-color="#5EDFBC"/>
</linearGradient>
<linearGradient id="paint2_linear_670_31125" x1="168.483" y1="0" x2="168.483" y2="84" gradientUnits="userSpaceOnUse">
<stop stop-color="#329E9C"/>
<stop offset="0.5" stop-color="#37B3B4"/>
<stop offset="1" stop-color="#5EDFBC"/>
</linearGradient>
</defs>
</svg>
